/* XPM */
static char * godot2_stable_xpm[] = {
"48 48 16 1",
" 	c None",
".	c #424043",
"+	c #58595C",
"@	c #64686A",
"#	c #488CBF",
"$	c #848485",
"%	c #6C9CC8",
"&	c #9F9FA0",
"*	c #8AAED0",
"=	c #BBBDBB",
"-	c #AFC6DD",
";	c #C5D6E5",
">	c #DBDEDC",
",	c #DAE2ED",
"'	c #E8EEF3",
")	c #F9FCFC",
"                                                ",
"                                                ",
"                   #        #                   ",
"                ####        ####                ",
"              #######      #######              ",
"              #######      #######              ",
"              ########    ########              ",
"              ####################              ",
"              ####################              ",
"              ####################              ",
"      #      ######################      #      ",
"     ###   ##########################   ###     ",
"    ########################################    ",
"    ########################################    ",
"   ##########################################   ",
"  ############################################  ",
"   ##########################################   ",
"   ##########################################   ",
"    ########################################    ",
"     ######################################     ",
"     #######%-;-################%-;-#######     ",
"     ######-))))'%#############-))))'%#####     ",
"     #####*))=&=)'############*)>&&>)'#####     ",
"     #####')&...@)*####;'*####,=...+>)*####     ",
"     #####)).....>-###%)),####)$....=);####     ",
"     #####)'.....=-###%)),####)+....&);####     ",
"     #####')@....>*###%)),####,&....=)*####     ",
"     #####*)>@..='####%)),####*'$..&)'#####     ",
"     ######-))>)'%####%));#####-)>>)'%#####     ",
"     #######%-;*#######,'*######%-;*#######     ",
"     %#####################################     ",
"    ');##################################%'     ",
"   ##;,##*),;*%###################*-;',##*)%#   ",
"   ##-,##-';'));####--------%###*))',,'##*)##   ",
"   ##-'*#-'###;,####)'''''')-###*)%##-'#%;)##   ",
"   ##*')','###-,####)*#####,-###*)###-),));##   ",
"    ###%;',###-'*%##)*#####,-##%-)###*),*###    ",
"    ##########*))))')*#####,''))),##########    ",
"     ###########%*--;%#####-;-*%###########     ",
"      ####################################      ",
"       ##################################       ",
"        ################################        ",
"          ############################          ",
"            ########################            ",
"               ##################               ",
"                    ########                    ",
"                                                ",
"                                                "};
